<svg xmlns="http://www.w3.org/2000/svg" width="760" height="220" viewBox="0 0 760 220">
  <defs>
    <linearGradient id="shine" x1="0%" y1="0%" x2="100%" y2="0%">
      <stop offset="0%" stop-color="#c9d1d9"/>
      <stop offset="55%" stop-color="#ffffff"/>
      <stop offset="100%" stop-color="#58a6ff"/>
    </linearGradient>
  </defs>

  <rect width="760" height="220" fill="#0d1117"/>

  <!-- sparse network-topology line art (static) -->
  <g stroke="#30363d" stroke-width="1" fill="none">
    <line x1="36" y1="34" x2="104" y2="66"/>
    <line x1="104" y1="66" x2="80" y2="132"/>
    <line x1="104" y1="66" x2="188" y2="46"/>
    <line x1="188" y1="46" x2="238" y2="98"/>
    <line x1="80" y1="132" x2="150" y2="176"/>
    <line x1="150" y1="176" x2="58" y2="188"/>

    <line x1="724" y1="34" x2="666" y2="60"/>
    <line x1="666" y1="60" x2="700" y2="118"/>
    <line x1="700" y1="118" x2="616" y2="152"/>
    <line x1="616" y1="152" x2="654" y2="192"/>
    <line x1="666" y1="60" x2="586" y2="44"/>
    <line x1="586" y1="44" x2="536" y2="92"/>
  </g>
  <g fill="#58a6ff" opacity="0.85">
    <circle cx="36" cy="34" r="2.4"/><circle cx="104" cy="66" r="2.4"/><circle cx="80" cy="132" r="2.4"/>
    <circle cx="188" cy="46" r="2.4"/><circle cx="238" cy="98" r="2.4"/><circle cx="150" cy="176" r="2.4"/>
    <circle cx="58" cy="188" r="2.4"/>
    <circle cx="724" cy="34" r="2.4"/><circle cx="666" cy="60" r="2.4"/><circle cx="700" cy="118" r="2.4"/>
    <circle cx="616" cy="152" r="2.4"/><circle cx="654" cy="192" r="2.4"/><circle cx="586" cy="44" r="2.4"/>
    <circle cx="536" cy="92" r="2.4"/>
  </g>

  <!-- shield emblem -->
  <path d="M380,22 L402,31 L402,50 C402,66 393,78 380,85 C367,78 358,66 358,50 L358,31 Z"
        fill="#161b22" stroke="#58a6ff" stroke-width="1.4"/>
  <path d="M368,52 L376,60 L393,40" fill="none" stroke="#58a6ff" stroke-width="2.4"
        stroke-linecap="round" stroke-linejoin="round"/>

  <!-- name -->
  <text x="380" y="130" text-anchor="middle" font-family="Helvetica Neue,Arial,sans-serif"
        font-size="52" font-weight="300" letter-spacing="13" fill="url(#shine)">OMAR BABBA</text>

  <!-- HUD-style corner brackets around subtitle -->
  <g stroke="#58a6ff" stroke-width="1.2" fill="none" opacity="0.8">
    <path d="M232,168 L232,158 L246,158"/>
    <path d="M528,168 L528,158 L514,158"/>
    <path d="M232,190 L232,200 L246,200"/>
    <path d="M528,190 L528,200 L514,200"/>
  </g>
  <text x="380" y="183" text-anchor="middle" font-family="Helvetica Neue,Arial,sans-serif"
        font-size="12.5" letter-spacing="4.5" fill="#8b949e">SOC JUNIOR · DETECTION ENGINEERING</text>
</svg>
