<svg xmlns="http://www.w3.org/2000/svg" width="600" height="286" viewBox="0 0 600 286" role="img" aria-labelledby="title"><title id="title">Network investigations — From packet captures to C2 behavior and cross-case correlation. Investigation reports, Sigma detections, and exported indicators.</title><rect x="1" y="1" width="598" height="284" rx="10" fill="#101713" stroke="#34493b"/><text x="28" y="34" fill="#c4ee9c" font-family="Arial, Helvetica, sans-serif" font-size="13" letter-spacing="1.3">03 / NETWORK FORENSICS</text><g fill="#f0f4ec" transform="translate(28 86) scale(0.017578125 -0.017578125)"><path d="M180 1V1454H365L1076 330L1052 304V1454H1254V1H1067L358 1108L382 1134V1Z" transform="translate(0 0)"/><path d="M585 -15Q368 -15 249.0 106.0Q130 227 130 450V567Q130 799 244.5 926.0Q359 1053 567 1053Q763 1053 870.5 909.0Q978 765 978 505V437H278V601H784Q775 727 718.5 798.0Q662 869 567 869Q452 869 388.0 793.0Q324 717 324 578V446Q324 317 392.5 248.0Q461 179 585 179Q647 179 708.0 204.0Q769 229 817 274L951 140Q874 66 778.0 25.5Q682 -15 585 -15Z" transform="translate(1434 0)"/><path d="M430 -5Q302 -5 244.5 66.0Q187 137 187 270V1340H391V268Q391 231 406.0 210.0Q421 189 450 189H548V-5ZM80 854V1038H548V854Z" transform="translate(2532 0)"/><path d="M390 0 70 1038H283L467 297L726 1038H868L1127 297L1311 1038H1524L1204 0H1050L797 717L544 0Z" transform="translate(3200 0)"/><path d="M558 -15Q354 -15 242.0 103.5Q130 222 130 437V606Q130 819 242.0 936.0Q354 1053 558 1053Q762 1053 874.0 936.0Q986 819 986 606V434Q986 220 874.0 102.5Q762 -15 558 -15ZM558 179Q665 179 723.5 246.0Q782 313 782 434V606Q782 727 723.5 793.0Q665 859 558 859Q452 859 393.0 793.0Q334 727 334 606V434Q334 313 393.0 246.0Q452 179 558 179Z" transform="translate(4784 0)"/><path d="M160 0V1038H364V0ZM731 792Q704 825 663.0 842.0Q622 859 568 859Q471 859 417.5 805.5Q364 752 364 657L343 857Q390 949 466.5 1001.0Q543 1053 635 1053Q706 1053 763.5 1032.5Q821 1012 864 972Z" transform="translate(5900 0)"/><path d="M235 152 248 394 782 1038H1022ZM160 0V1454H364V0ZM851 0 489 599 620 735 1073 0Z" transform="translate(6774 0)"/><path d="" transform="translate(7857 0)"/><path d="M160 1250V1454H364V1250ZM160 0V1038H364V0Z" transform="translate(8407 0)"/><path d="M160 0V1038H364V0ZM790 0V629Q790 739 733.5 799.0Q677 859 573 859Q473 859 418.5 806.0Q364 753 364 657L343 857Q391 951 468.5 1002.0Q546 1053 640 1053Q809 1053 901.5 942.5Q994 832 994 630V0Z" transform="translate(8921 0)"/><path d="M517 297 771 1038H984L594 0H440L50 1038H263Z" transform="translate(10065 0)"/><path d="M585 -15Q368 -15 249.0 106.0Q130 227 130 450V567Q130 799 244.5 926.0Q359 1053 567 1053Q763 1053 870.5 909.0Q978 765 978 505V437H278V601H784Q775 727 718.5 798.0Q662 869 567 869Q452 869 388.0 793.0Q324 717 324 578V446Q324 317 392.5 248.0Q461 179 585 179Q647 179 708.0 204.0Q769 229 817 274L951 140Q874 66 778.0 25.5Q682 -15 585 -15Z" transform="translate(11089 0)"/><path d="M527 -15Q389 -15 276.5 25.5Q164 66 75 147L196 296Q281 232 363.5 200.0Q446 168 527 168Q648 168 708.5 205.5Q769 243 769 318Q769 376 728.5 400.0Q688 424 622.5 431.5Q557 439 482 444Q419 449 357.0 459.5Q295 470 244.0 497.5Q193 525 162.5 579.0Q132 633 132 724Q132 889 233.0 971.0Q334 1053 534 1053Q656 1053 761.0 1020.0Q866 987 958 919L835 770Q757 820 681.5 845.0Q606 870 534 870Q430 870 378.0 834.5Q326 799 326 728Q326 681 362.0 660.5Q398 640 457.0 634.0Q516 628 584 623Q649 619 715.5 608.5Q782 598 838.0 568.0Q894 538 928.0 479.0Q962 420 962 318Q962 151 853.5 68.0Q745 -15 527 -15Z" transform="translate(12187 0)"/><path d="M430 -5Q302 -5 244.5 66.0Q187 137 187 270V1340H391V268Q391 231 406.0 210.0Q421 189 450 189H548V-5ZM80 854V1038H548V854Z" transform="translate(13249 0)"/><path d="M160 1250V1454H364V1250ZM160 0V1038H364V0Z" transform="translate(13917 0)"/><path d="M508 -422Q391 -422 298.5 -378.5Q206 -335 155 -256L293 -131Q333 -186 388.5 -216.0Q444 -246 505 -246Q622 -246 686.0 -181.5Q750 -117 750 1V1038H954V31Q954 -185 837.5 -303.5Q721 -422 508 -422ZM489 -18Q317 -18 223.5 92.5Q130 203 130 404V633Q130 835 221.5 945.5Q313 1056 479 1056Q571 1056 647.5 1008.0Q724 960 771 873L750 661Q750 727 726.0 774.0Q702 821 656.5 845.5Q611 870 546 870Q445 870 389.5 807.0Q334 744 334 630V404Q334 291 389.5 229.5Q445 168 546 168Q611 168 656.5 193.5Q702 219 726.0 267.0Q750 315 750 382L764 163Q736 93 667.5 37.5Q599 -18 489 -18Z" transform="translate(14431 0)"/><path d="M746 0V658Q746 760 691.5 816.5Q637 873 537 873Q476 873 416.5 854.5Q357 836 310 801L161 903Q220 974 316.5 1013.5Q413 1053 531 1053Q726 1053 833.0 952.0Q940 851 940 667V0ZM492 -15Q301 -15 205.5 64.0Q110 143 110 306Q110 461 197.5 537.5Q285 614 460 614H755L769 450H461Q382 450 342.0 414.5Q302 379 302 306Q302 227 355.0 189.0Q408 151 514 151Q630 151 688.0 176.0Q746 201 746 254L767 108Q740 66 700.0 39.0Q660 12 608.5 -1.5Q557 -15 492 -15Z" transform="translate(15535 0)"/><path d="M430 -5Q302 -5 244.5 66.0Q187 137 187 270V1340H391V268Q391 231 406.0 210.0Q421 189 450 189H548V-5ZM80 854V1038H548V854Z" transform="translate(16625 0)"/><path d="M160 1250V1454H364V1250ZM160 0V1038H364V0Z" transform="translate(17293 0)"/><path d="M558 -15Q354 -15 242.0 103.5Q130 222 130 437V606Q130 819 242.0 936.0Q354 1053 558 1053Q762 1053 874.0 936.0Q986 819 986 606V434Q986 220 874.0 102.5Q762 -15 558 -15ZM558 179Q665 179 723.5 246.0Q782 313 782 434V606Q782 727 723.5 793.0Q665 859 558 859Q452 859 393.0 793.0Q334 727 334 606V434Q334 313 393.0 246.0Q452 179 558 179Z" transform="translate(17807 0)"/><path d="M160 0V1038H364V0ZM790 0V629Q790 739 733.5 799.0Q677 859 573 859Q473 859 418.5 806.0Q364 753 364 657L343 857Q391 951 468.5 1002.0Q546 1053 640 1053Q809 1053 901.5 942.5Q994 832 994 630V0Z" transform="translate(18923 0)"/><path d="M527 -15Q389 -15 276.5 25.5Q164 66 75 147L196 296Q281 232 363.5 200.0Q446 168 527 168Q648 168 708.5 205.5Q769 243 769 318Q769 376 728.5 400.0Q688 424 622.5 431.5Q557 439 482 444Q419 449 357.0 459.5Q295 470 244.0 497.5Q193 525 162.5 579.0Q132 633 132 724Q132 889 233.0 971.0Q334 1053 534 1053Q656 1053 761.0 1020.0Q866 987 958 919L835 770Q757 820 681.5 845.0Q606 870 534 870Q430 870 378.0 834.5Q326 799 326 728Q326 681 362.0 660.5Q398 640 457.0 634.0Q516 628 584 623Q649 619 715.5 608.5Q782 598 838.0 568.0Q894 538 928.0 479.0Q962 420 962 318Q962 151 853.5 68.0Q745 -15 527 -15Z" transform="translate(20067 0)"/></g><text x="28" y="124" fill="#b1beb4" font-family="Arial, Helvetica, sans-serif" font-size="20" >Packet captures, C2 behavior, and cross-case</text><text x="28" y="151" fill="#b1beb4" font-family="Arial, Helvetica, sans-serif" font-size="20" >correlation. Investigation reports, Sigma</text><text x="28" y="178" fill="#b1beb4" font-family="Arial, Helvetica, sans-serif" font-size="20" >detections, and exported indicators.</text><path d="M28 210H572" stroke="#34493b"/><text x="28" y="240" fill="#b1beb4" font-family="Arial, Helvetica, sans-serif" font-size="13" letter-spacing=".9">WIRESHARK / ZEEK / SIGMA</text><text x="28" y="266" fill="#c4ee9c" font-family="Arial, Helvetica, sans-serif" font-size="15" >5 malware investigations</text><path d="M544 36h20v20m0-20-20 20" fill="none" stroke="#c4ee9c" stroke-width="1.5"/></svg>
